# xmcd
#
# Track frame offsets:
#	182
#	15175
#	34117
#	46490
#	62735
#	82330
#	96017
#	113867
#	130757
#	145642
#	163097
#	179330
#	192395
#	208965
#	223070
#	237342
#	254467
#	265330
#	278967
#	292390
#
# Disc length: 4108 seconds
#
# Revision: 1
# Processed by: cddbd v1.5.2PL0 Copyright (c) Steve Scherf et al.
# Submitted via: EasyCDDAExtractor 7.1.2.1
#
DISCID=3b100a14
DTITLE=Various Artist - Arista Nashville - The Fifth Anniversary Collection -
DTITLE=Disc 2
DYEAR=1995
DGENRE=Country
TTITLE0=Pam Tillis - Maybe It Was Memphis
TTITLE1=Diamond Rio - Mama, Don't Forget To Pray For Me
TTITLE2=Alan Jackson - Dallas
TTITLE3=Steve Wariner - The Tips Of My Fingers
TTITLE4=Brooks and Dunn - Neon Moon
TTITLE5=Diamond Rio - Norma Jean Riley
TTITLE6=Michelle Wright - Take It Like A Man
TTITLE7=Alan Jackson - Midnight In Montgomery
TTITLE8=Brooks and Dunn - Boot Scootin' Boogie
TTITLE9=Steve Wariner - A Woman Loves
TTITLE10=Lee Roy Parnell - What Kind Of Fool Do You Think I Am
TTITLE11=Alan Jackson - Love's Got A Hold On You
TTITLE12=Diamond Rio - Nowhere Bound
TTITLE13=Pam Tillis - Shake The Sugar Tree
TTITLE14=Radney Foster - Just Call Me Lonesome
TTITLE15=Brooks and Dunn - Lost And Found
TTITLE16=Alan Jackson - She's Got The Rhythm
TTITLE17=Lee Roy Parnell - Love Without Mercy
TTITLE18=Diamond Rio - In A Week Or Two
TTITLE19=Pam Tillis - Let That Pony Run
EXTD=YEAR: 1995
EXTT0=
EXTT1=
EXTT2=
EXTT3=
EXTT4=
EXTT5=
EXTT6=
EXTT7=
EXTT8=
EXTT9=
EXTT10=
EXTT11=
EXTT12=
EXTT13=
EXTT14=
EXTT15=
EXTT16=
EXTT17=
EXTT18=
EXTT19=
PLAYORDER=
